<svg xmlns="http://www.w3.org/2000/svg" width="101.516" height="108.642" viewBox="0 0 101.516 108.642">
  <path id="Logout-Icon-SVG-030kfdf" d="M0,57.309A50.019,50.019,0,0,1,23.711,14.688a4.738,4.738,0,0,1,6.547,1.454,4.822,4.822,0,0,1-1.6,6.691A40.643,40.643,0,1,0,90.916,57.309,40.382,40.382,0,0,0,71.86,22.834a4.808,4.808,0,0,1-1.6-6.546,4.654,4.654,0,0,1,6.546-1.6A50.266,50.266,0,1,1,0,57.309ZM45.382,28.657v-24a4.8,4.8,0,0,1,9.6,0v24a4.8,4.8,0,1,1-9.6,0Z" transform="translate(0.5 0.5)" stroke="rgba(0,0,0,0)" stroke-miterlimit="10" stroke-width="1"/>
</svg>
